<?xml version="1.0" encoding="UTF-8" standalone="no"?>
<!-- Created with Inkscape (http://www.inkscape.org/) -->
<svg xmlns:dc="http://purl.org/dc/elements/1.1/" xmlns:cc="http://creativecommons.org/ns#" xmlns:rdf="http://www.w3.org/1999/02/22-rdf-syntax-ns#" xmlns:svg="http://www.w3.org/2000/svg" xmlns="http://www.w3.org/2000/svg" xmlns:xlink="http://www.w3.org/1999/xlink" xmlns:sodipodi="http://sodipodi.sourceforge.net/DTD/sodipodi-0.dtd" xmlns:inkscape="http://www.inkscape.org/namespaces/inkscape" width="1000" height="497.37393" id="svg3081" version="1.1" inkscape:version="0.48.2 r9819" sodipodi:docname="asdasdsad.svg">
  <defs id="defs3083">
    <linearGradient id="linearGradient3962">
      <stop style="stop-color:#f8f100;stop-opacity:1;" offset="0" id="stop3964"/>
      <stop style="stop-color:#ff8f42;stop-opacity:1;" offset="1" id="stop3966"/>
    </linearGradient>
    <linearGradient inkscape:collect="always" xlink:href="#linearGradient3962" id="linearGradient3968" x1="236.13686" y1="1182.5707" x2="360.94864" y2="1100.8104" gradientUnits="userSpaceOnUse"/>
    <linearGradient inkscape:collect="always" xlink:href="#linearGradient3962" id="linearGradient3976" x1="524.68042" y1="949.1167" x2="662.75549" y2="869.39905" gradientUnits="userSpaceOnUse" gradientTransform="matrix(1.0495314,0,0,1.0495314,0.06021324,-50.22748)"/>
    <linearGradient inkscape:collect="always" xlink:href="#linearGradient3962" id="linearGradient3978" x1="448.19272" y1="943.74744" x2="570.42816" y2="873.17474" gradientUnits="userSpaceOnUse" gradientTransform="matrix(1.0495314,0,0,1.0495314,0.06021324,-50.22748)"/>
    <linearGradient inkscape:collect="always" xlink:href="#linearGradient3962" id="linearGradient3980" x1="335.9877" y1="948.98987" x2="474.98361" y2="868.74054" gradientUnits="userSpaceOnUse" gradientTransform="matrix(1.0495314,0,0,1.0495314,0.06021324,-50.22748)"/>
    <linearGradient inkscape:collect="always" xlink:href="#linearGradient3962" id="linearGradient3982" x1="230.82472" y1="949.56262" x2="368.43353" y2="870.11414" gradientUnits="userSpaceOnUse" gradientTransform="matrix(1.0495314,0,0,1.0495314,0.06021324,-50.22748)"/>
    <linearGradient inkscape:collect="always" xlink:href="#linearGradient3962" id="linearGradient3984" x1="808.53033" y1="794.79364" x2="926.61707" y2="726.61621" gradientUnits="userSpaceOnUse" gradientTransform="matrix(1.0495314,0,0,1.0495314,0.06021324,-50.22748)"/>
    <linearGradient inkscape:collect="always" xlink:href="#linearGradient3962" id="linearGradient3986" x1="688.25684" y1="801.01874" x2="820.73419" y2="724.5329" gradientUnits="userSpaceOnUse" gradientTransform="matrix(1.0495314,0,0,1.0495314,0.06021324,-50.22748)"/>
    <linearGradient inkscape:collect="always" xlink:href="#linearGradient3962" id="linearGradient3988" x1="594.25348" y1="800.60803" x2="733.47968" y2="720.22577" gradientUnits="userSpaceOnUse" gradientTransform="matrix(1.0495314,0,0,1.0495314,0.06021324,-50.22748)"/>
    <linearGradient inkscape:collect="always" xlink:href="#linearGradient3962" id="linearGradient3990" x1="493.70859" y1="800.95178" x2="632.31537" y2="720.92712" gradientUnits="userSpaceOnUse" gradientTransform="matrix(1.0495314,0,0,1.0495314,0.06021324,-50.22748)"/>
    <linearGradient inkscape:collect="always" xlink:href="#linearGradient3962" id="linearGradient3992" x1="414.57391" y1="795.1839" x2="535.07587" y2="725.61206" gradientUnits="userSpaceOnUse" gradientTransform="matrix(1.0495314,0,0,1.0495314,0.06021324,-50.22748)"/>
    <linearGradient inkscape:collect="always" xlink:href="#linearGradient3962" id="linearGradient3994" x1="547.4425" y1="649.67535" x2="694.34747" y2="564.85974" gradientUnits="userSpaceOnUse" gradientTransform="matrix(1.0495314,0,0,1.0495314,0.06021324,-50.22748)"/>
    <linearGradient inkscape:collect="always" xlink:href="#linearGradient3962" id="linearGradient3996" x1="448.15094" y1="650.02258" x2="593.07745" y2="566.34924" gradientUnits="userSpaceOnUse" gradientTransform="matrix(1.0495314,0,0,1.0495314,0.06021324,-50.22748)"/>
    <linearGradient inkscape:collect="always" xlink:href="#linearGradient3962" id="linearGradient3998" x1="353.31256" y1="648.97882" x2="494.23373" y2="567.61792" gradientUnits="userSpaceOnUse" gradientTransform="matrix(1.0495314,0,0,1.0495314,0.06021324,-50.22748)"/>
    <linearGradient inkscape:collect="always" xlink:href="#linearGradient3962" id="linearGradient4000" x1="242.16339" y1="649.24768" x2="381.35507" y2="568.88531" gradientUnits="userSpaceOnUse" gradientTransform="matrix(1.0495314,0,0,1.0495314,0.06021324,-50.22748)"/>
    <linearGradient inkscape:collect="always" xlink:href="#linearGradient3962" id="linearGradient4002" x1="136.87946" y1="650.828" x2="281.53812" y2="567.30927" gradientUnits="userSpaceOnUse" gradientTransform="matrix(1.0495314,0,0,1.0495314,0.06021324,-50.22748)"/>
    <linearGradient inkscape:collect="always" xlink:href="#linearGradient3962" id="linearGradient4018" x1="166.2234" y1="843.33502" x2="213.60863" y2="843.33502" gradientUnits="userSpaceOnUse" gradientTransform="matrix(1.0495314,0,0,1.0495314,0.06021324,-50.22748)"/>
    <linearGradient inkscape:collect="always" xlink:href="#linearGradient3962" id="linearGradient4034" x1="324.61877" y1="816.60852" x2="548.39594" y2="687.41071" gradientUnits="userSpaceOnUse" gradientTransform="matrix(1.0495314,0,0,1.0495314,0.06021324,-50.22748)"/>
  </defs>
  <sodipodi:namedview id="base" pagecolor="#ffffff" bordercolor="#666666" borderopacity="1.0" inkscape:pageopacity="0.0" inkscape:pageshadow="2" inkscape:zoom="0.42656978" inkscape:cx="697.77154" inkscape:cy="321.77782" inkscape:document-units="px" inkscape:current-layer="layer1" showgrid="false" inkscape:window-width="1360" inkscape:window-height="706" inkscape:window-x="-8" inkscape:window-y="-8" inkscape:window-maximized="1" showguides="true" inkscape:guide-bbox="true" fit-margin-top="0" fit-margin-left="0" fit-margin-right="0" fit-margin-bottom="0"/>
  <metadata id="metadata3086">
    <rdf:RDF>
      <cc:Work rdf:about="">
        <dc:format>image/svg+xml</dc:format>
        <dc:type rdf:resource="http://purl.org/dc/dcmitype/StillImage"/>
        <dc:title/>
      </cc:Work>
    </rdf:RDF>
  </metadata>
  <g inkscape:groupmode="layer" id="layer2" inkscape:label="Warstwa" transform="translate(1.2156573,-516.67886)">
    <path style="font-size:medium;font-style:normal;font-variant:normal;font-weight:normal;font-stretch:normal;text-indent:0;text-align:start;text-decoration:none;line-height:normal;letter-spacing:normal;word-spacing:normal;text-transform:none;direction:ltr;block-progression:tb;writing-mode:lr-tb;text-anchor:start;baseline-shift:baseline;color:#000000;fill:#000000;fill-opacity:1;fill-rule:nonzero;stroke:none;stroke-width:9;marker:none;visibility:visible;display:inline;overflow:visible;enable-background:accumulate;font-family:Sans;-inkscape-font-specification:Sans" d="m 460.08296,667.32403 -129.02678,0.88554 -2.00067,0 -1.3775,1.47591 -28.43574,30.17403 -4.72289,5.01807 5.11645,2.09907 c 0.0918,0.24425 0.17411,0.39963 0.26239,0.78714 0.29356,1.28857 0.38756,3.12066 0,4.6245 -0.38755,1.50384 -1.0497,2.65746 -2.55823,3.64056 -1.50853,0.9831 -4.15649,1.86382 -8.82262,1.6071 l -0.164,0 -0.16399,0 c -4.65348,0.0693 -11.85965,-2.01711 -19.97389,-5.14926 -8.11424,-3.13216 -17.22119,-7.19829 -26.56627,-10.52811 -9.34506,-3.32984 -18.94612,-5.99201 -28.30454,-6.06761 -9.35842,-0.0756 -18.64466,2.70491 -25.94311,10.00334 l -11.44645,11.41366 15.77577,-3.47657 c 13.03002,-2.87181 25.74433,2.71083 30.10844,8.10107 2.18204,2.69512 2.35521,4.24269 1.3775,5.93641 -0.9509,1.64729 -4.43976,4.32228 -12.2008,5.87081 -9.04213,-0.68849 -17.77413,-4.21442 -27.12383,-7.77308 -9.54228,-3.63197 -19.80432,-7.25789 -31.48594,-6.59237 -13.49218,0.78712 -24.9441,9.31795 -36.89759,16.92369 -11.95349,7.60573 -24.214501,14.50806 -38.504684,14.56225 l -16.890896,0.0656 14.463855,8.69143 c 9.477249,5.69657 20.267801,5.97036 30.633195,4.26371 10.36539,-1.70663 20.63486,-5.33995 29.97725,-8.13387 9.34239,-2.79391 17.72386,-4.58618 23.54886,-3.60776 5.60703,0.94182 9.36559,3.63391 12.23359,12.2664 -0.59088,5.03502 -2.74488,8.73043 -7.47791,11.97122 -5.02098,3.43795 -13.10976,6.09714 -24.4344,7.31392 l -16.7269,1.80389 15.2182,7.14993 c 13.13474,6.19023 27.86346,4.37679 41.88287,0.98394 13.79347,-3.33819 27.24382,-8.25092 38.1439,-10.06895 4.93902,0.42494 8.50409,1.61776 10.6593,3.0174 2.24299,1.45665 3.11915,2.94758 3.44378,4.52611 0.64925,3.15706 -1.44974,8.14106 -7.96988,12.03681 l -11.15127,6.65797 12.85676,2.03346 c 12.87731,2.04446 24.82523,-1.41083 35.81525,-5.24766 10.71111,-3.73944 20.633,-7.77129 29.68207,-8.59303 7.84081,2.15836 12.30248,4.91224 14.03749,6.92035 1.79809,2.08114 1.68124,2.84484 0.65595,4.78848 -2.05058,3.88731 -11.9213,9.80089 -23.41767,10.6921 l -15.18541,1.18072 13.18474,7.64191 c 12.80927,7.39542 25.91721,5.81729 36.27443,6.29719 l 0.0984,0 0.0984,0 c 14.31941,0.0533 24.86147,-4.67682 33.78178,-8.95382 8.92032,-4.277 16.09649,-7.89977 25.12316,-7.6419 3.88919,0.27803 6.50081,0.82358 7.74029,2.03347 1.2604,1.23029 2.69542,4.30332 1.70549,12.79117 l -0.36077,3.11578 2.72222,1.54151 39.35744,22.30254 3.57496,2.03347 2.49263,-3.27979 84.84806,-111.05354 2.13186,-2.82062 -2.06626,-2.85341 -53.78849,-73.4672 -1.4431,-1.93508 -2.39425,0 z m -2.36145,9.47859 50.27912,68.67871 -80.19077,104.98594 -33.25702,-18.82597 c 0.47386,-8.03382 -0.94676,-13.82653 -4.65729,-17.44846 -4.2059,-4.10546 -9.61318,-4.43204 -13.87351,-4.72289 l -0.0983,0 -0.0984,0 c -11.70326,-0.33434 -20.71591,4.35561 -29.48527,8.56024 -8.71924,4.18058 -17.29969,8.03652 -29.45249,8.03547 -0.0678,-0.003 -0.129,0.003 -0.19678,0 -5.58788,-0.24951 -10.99424,-0.12896 -16.20215,-0.59036 5.99191,-2.66998 10.85757,-6.4096 13.47993,-11.38085 2.44201,-4.62935 1.99168,-10.88045 -1.86948,-15.3494 -3.86117,-4.46894 -10.19989,-7.6763 -19.61312,-10.13453 l -0.75435,-0.1968 -0.75435,0.0656 c -11.44819,0.82696 -22.24461,5.47617 -32.86345,9.1834 -6.89979,2.40885 -13.6483,4.28398 -20.36747,4.95248 2.79028,-4.14168 4.13865,-8.75957 3.18139,-13.41432 -0.85801,-4.17215 -3.55033,-7.96766 -7.54351,-10.56092 -3.99317,-2.59325 -9.20829,-4.13557 -15.64457,-4.59169 l -0.55757,-0.0328 -0.52477,0.0656 c -12.5184,1.98335 -26.20526,7.15734 -39.45582,10.36412 -4.39721,1.06419 -8.63479,1.75949 -12.79116,2.23026 1.54664,-0.78147 3.07502,-1.56642 4.42771,-2.49263 6.97462,-4.77565 11.13167,-11.87659 11.74164,-19.9411 l 0.0656,-0.88554 -0.26239,-0.85275 c -3.59944,-11.72599 -11.25898,-18.19834 -20.07228,-19.67871 -8.8133,-1.48038 -18.19633,0.98452 -27.84538,3.87014 -9.64906,2.88562 -19.59677,6.35676 -28.79652,7.87149 -0.74396,0.12249 -1.43474,0.1331 -2.16466,0.22959 6.87549,-2.97958 13.18191,-6.79086 19.05555,-10.52812 12.21286,-7.77076 22.82105,-14.8887 32.40429,-15.44779 9.4064,-0.53589 18.19221,2.4074 27.5502,5.96921 9.35799,3.56182 19.20183,7.754 30.46921,8.46185 l 0.59036,0.0327 0.55757,-0.0984 c 9.66038,-1.78915 16.14563,-5.15507 19.28514,-10.59371 3.13949,-5.43864 1.50634,-12.01332 -2.23026,-16.62851 -3.7934,-4.68534 -9.68782,-8.4363 -16.69411,-10.56091 0.27081,-0.003 0.51287,-0.0678 0.78715,-0.0656 7.58013,0.0613 16.30497,2.34458 25.18875,5.51004 8.88378,3.16547 17.89532,7.1713 26.33668,10.42972 8.31628,3.21014 16.01502,5.79929 23.18809,5.77242 0.10789,-3.9e-4 0.22031,0.0344 0.32797,0.0328 l 0,-0.0328 c 5.90165,0.27352 10.63003,-0.80969 14.16867,-3.11579 3.6075,-2.35097 5.70303,-5.85972 6.55958,-9.1834 0.85656,-3.32368 0.65825,-6.48353 0.0656,-9.085 -0.15391,-0.67558 -0.43902,-1.22572 -0.65596,-1.83669 l 24.69678,-26.17268 124.56627,-0.85275 z m -158.24966,29.64926 c 0.0124,0.024 0.0481,0.15759 0.0656,0.19679 -0.16403,-0.20152 -0.10856,-0.27985 -0.0656,-0.19679 z" id="path4010" inkscape:connector-curvature="0"/>
    <path sodipodi:nodetypes="cccccccccccccccccccc" inkscape:connector-curvature="0" id="path4041" d="m 77.025851,755.58055 c 31.566679,-0.11971 52.578309,-30.13973 75.653729,-31.48594 21.08802,-1.20141 38.0903,13.14266 58.59884,14.43105 35.78538,-6.62764 9.34126,-35.10722 -20.55333,-29.29941 28.68725,-18.23211 73.68124,13.47368 97.51895,13.11914 21.45905,1.18064 16.98093,-18.19812 14.43106,-19.24141 l 28.42482,-30.17403 129.0049,-0.87461 53.78849,73.46721 -84.83712,111.0754 -39.35744,-22.30254 c 2.13724,-18.32512 -5.73416,-19.55213 -13.99375,-20.11602 -20.72991,-0.59221 -32.45251,16.71664 -59.03614,16.61758 -10.90672,-0.50536 -21.90012,-1.2708 -34.10977,-5.68496 25.3543,-1.96551 44.34655,-22.62625 8.74609,-31.92325 -20.68436,1.49414 -41.96147,17.6766 -65.1584,13.99375 15.37341,-9.18555 14.6584,-26.76618 -8.74611,-28.42481 -23.51053,3.72488 -53.695,20.15105 -77.84023,9.6207 23.58232,-2.53381 35.26842,-10.89912 36.29629,-24.48906 -13.01136,-42.38726 -66.11207,11.35781 -98.830879,-8.30879 z" style="fill:#ed560f;fill-opacity:1;stroke:none"/>
    <path style="fill:#000000;fill-opacity:1;stroke:#000000;stroke-width:9.44578266;stroke-linecap:butt;stroke-linejoin:miter;stroke-miterlimit:4;stroke-opacity:1;stroke-dasharray:none" d="m 248.54425,751.91706 c 12.27107,-7.96775 28.58705,4.60985 44.47416,6.12028 9.30615,-1.24682 7.14746,-7.92436 6.52831,-13.87266 21.56091,14.69069 56.10405,19.5199 59.57089,-2.44813 -0.9916,-13.20612 -11.50954,-13.36493 -19.99297,-17.13681 28.60557,-9.2262 41.58209,12.12874 65.28316,15.91276 19.8026,-0.40804 16.43238,-14.76963 14.28069,-23.25712 17.83774,12.17121 19.71009,34.04617 34.68168,43.25009 l 14.28069,25.29723 -25.29722,0.81603 c -45.19553,-8.17948 -40.21736,21.03167 -77.52376,12.23916 11.97081,-4.87704 21.87796,-10.27433 19.78807,-22.84767 -8.59652,-25.77178 -38.81016,-1.27027 -58.54994,-0.81604 -21.77115,2.57231 -48.40918,-22.91668 -77.52376,-23.25712 z" id="path4026" inkscape:connector-curvature="0" sodipodi:nodetypes="cccccccccccccc"/>
    <path sodipodi:nodetypes="cccccccccccccc" inkscape:connector-curvature="0" id="path4036" d="m 248.54425,751.91706 c 12.27107,-7.96775 28.58705,4.60985 44.47416,6.12028 9.30615,-1.24682 7.14746,-7.92436 6.52831,-13.87266 21.56091,14.69069 56.10405,19.5199 59.57089,-2.44813 -0.9916,-13.20612 -11.50954,-13.36493 -19.99297,-17.13681 28.60557,-9.2262 41.58209,12.12874 65.28316,15.91276 19.8026,-0.40804 16.43238,-14.76963 14.28069,-23.25712 17.83774,12.17121 19.71009,34.04617 34.68168,43.25009 l 14.28069,25.29723 -25.29722,0.81603 c -45.19553,-8.17948 -40.21736,21.03167 -77.52376,12.23916 11.97081,-4.87704 21.87796,-10.27433 19.78807,-22.84767 -8.59652,-25.77178 -38.81016,-1.27027 -58.54994,-0.81604 -21.77115,2.57231 -48.40918,-22.91668 -77.52376,-23.25712 z" style="fill:url(#linearGradient4034);fill-opacity:1;stroke:none"/>
  </g>
  <g inkscape:groupmode="layer" id="layer3" inkscape:label="Warstwa#1" transform="translate(1.2156573,-516.67886)">
    <path sodipodi:nodetypes="cccccccccccccccc" inkscape:connector-curvature="0" id="path4103" d="m 793.43321,652.82727 c 6.02726,1.43705 9.01104,-0.57519 8.5705,-6.46831 l 0.32341,-15.36222 20.05179,-13.74517 c 5.09,-4.58859 0.96518,-11.31955 -3.39589,-11.31955 l -17.30271,0 -8.2471,-20.37516 c -2.21001,-4.48395 -5.55197,-3.90483 -7.60028,0 l -12.4515,20.37459 -23.1242,0 c -7.48917,1.46014 -3.21163,7.77502 0.16173,10.835 l 10.83443,9.37904 -11.15784,17.46443 c -1.79122,3.99677 -0.17477,10.82601 9.05563,8.89396 l 18.75812,-10.99612 z" style="fill:#000000;stroke:none"/>
    <path style="fill:#000000;stroke:none" d="m 879.43339,652.82727 c 6.02727,1.43705 9.01105,-0.57519 8.57051,-6.46831 l 0.32342,-15.36222 20.05177,-13.74517 c 5.09001,-4.58859 0.9652,-11.31955 -3.39588,-11.31955 l -17.30271,0 -8.24711,-20.37516 c -2.21,-4.48395 -5.55196,-3.90483 -7.60027,0 l -12.45149,20.37459 -23.12421,0 c -7.48918,1.46014 -3.21164,7.77502 0.16173,10.835 l 10.83443,9.37904 -11.15784,17.46443 c -1.79123,3.99677 -0.17476,10.82601 9.05563,8.89396 l 18.75811,-10.99612 z" id="path4107" inkscape:connector-curvature="0" sodipodi:nodetypes="cccccccccccccccc"/>
    <path sodipodi:nodetypes="cccccccccccccccc" inkscape:connector-curvature="0" id="path4111" d="m 966.03499,652.82727 c 6.02726,1.43705 9.01105,-0.57519 8.5705,-6.46831 l 0.32342,-15.36222 20.05177,-13.74517 c 5.09002,-4.58859 0.9652,-11.31955 -3.39588,-11.31955 l -17.30271,0 -8.2471,-20.37516 c -2.21001,-4.48395 -5.55197,-3.90483 -7.60028,0 l -12.45149,20.37459 -23.1242,0 c -7.48918,1.46014 -3.21165,7.77502 0.16172,10.835 l 10.83443,9.37904 -11.15784,17.46443 c -1.79123,3.99677 -0.17476,10.82601 9.05563,8.89396 l 18.75811,-10.99612 z" style="fill:#000000;stroke:none"/>
    <path style="fill:#000000;stroke:none" d="m 46.111398,930.69559 c 6.027354,1.43705 9.011067,-0.57518 8.570578,-6.4683 l 0.323361,-15.36222 20.051822,-13.74517 c 5.090018,-4.58859 0.96515,-11.31955 -3.395863,-11.31955 l -17.302785,0 -8.247113,-20.37517 c -2.209999,-4.48394 -5.551927,-3.90483 -7.600235,0 l -12.451494,20.37459 -23.1241999,0 c -7.4891834,1.46014 -3.21163974,7.77502 0.1617222,10.83501 l 10.8344277,9.37904 -11.1578408,17.46444 c -1.79122481,3.99675 -0.1747575,10.82599 9.0556298,8.89394 l 18.758119,-10.99612 z" id="path4115" inkscape:connector-curvature="0" sodipodi:nodetypes="cccccccccccccccc"/>
    <path sodipodi:nodetypes="cccccccccccccccc" inkscape:connector-curvature="0" id="path4117" d="m 129.09882,930.69559 c 6.02725,1.43705 9.01097,-0.57518 8.57048,-6.4683 l 0.32336,-15.36222 20.05182,-13.74517 c 5.09002,-4.58859 0.96515,-11.31955 -3.39587,-11.31955 l -17.30278,0 -8.24701,-20.37517 c -2.2101,-4.48394 -5.55202,-3.90483 -7.60028,0 l -12.45154,20.37459 -23.124225,0 c -7.489141,1.46014 -3.211566,7.77502 0.161733,10.83501 l 10.834417,9.37904 -11.157778,17.46444 c -1.791236,3.99675 -0.174747,10.82599 9.055567,8.89394 l 18.758176,-10.99612 z" style="fill:#000000;stroke:none"/>
    <path style="fill:#000000;stroke:none" d="m 214.49524,930.69559 c 6.02724,1.43705 9.01106,-0.57518 8.57047,-6.4683 l 0.32346,-15.36222 20.05173,-13.74517 c 5.09001,-4.58859 0.96524,-11.31955 -3.39587,-11.31955 l -17.30268,0 -8.24711,-20.37517 c -2.21,-4.48394 -5.55203,-3.90483 -7.60029,0 l -12.45154,20.37459 -23.12411,0 c -7.48925,1.46014 -3.21167,7.77502 0.16163,10.83501 l 10.83452,9.37904 -11.15789,17.46444 c -1.79123,3.99675 -0.17475,10.82599 9.05568,8.89394 l 18.75807,-10.99612 z" id="path4119" inkscape:connector-curvature="0" sodipodi:nodetypes="cccccccccccccccc"/>
  </g>
  <g inkscape:label="Layer 1" inkscape:groupmode="layer" id="layer1" transform="translate(1.2156573,-516.67886)">
    <path transform="matrix(1.4048329,0.01882581,-0.38774595,1.3472138,1088.5756,-579.725)" inkscape:transform-center-y="-3.2587419" inkscape:transform-center-x="-2.8720583" d="m 164.50194,909.05156 -15.18092,-10.79657 -14.9619,11.33871 5.57699,-17.77423 -15.40724,-10.72577 18.62769,-0.1885 5.4397,-17.9676 5.93556,17.65773 18.76916,-0.37883 -14.95931,11.10159 z" inkscape:randomized="0" inkscape:rounded="0" inkscape:flatsided="false" sodipodi:arg2="1.5435626" sodipodi:arg1="0.9244941" sodipodi:r2="9.6799641" sodipodi:r1="25.645163" sodipodi:cy="888.57861" sodipodi:cx="149.05743" sodipodi:sides="5" id="path3954" style="fill:#000000;fill-opacity:1;stroke:none" sodipodi:type="star"/>
    <path sodipodi:type="star" style="fill:#000000;fill-opacity:1;stroke:none" id="path3956" sodipodi:sides="5" sodipodi:cx="149.05743" sodipodi:cy="888.57861" sodipodi:r1="25.645163" sodipodi:r2="9.6799641" sodipodi:arg1="0.9244941" sodipodi:arg2="1.5435626" inkscape:flatsided="false" inkscape:rounded="0" inkscape:randomized="0" d="m 164.50194,909.05156 -15.18092,-10.79657 -14.9619,11.33871 5.57699,-17.77423 -15.40724,-10.72577 18.62769,-0.1885 5.4397,-17.9676 5.93556,17.65773 18.76916,-0.37883 -14.95931,11.10159 z" inkscape:transform-center-x="-2.872109" inkscape:transform-center-y="-3.2587419" transform="matrix(1.4048329,0.01882581,-0.38774595,1.3472138,1001.5876,-579.725)"/>
    <path transform="matrix(1.4048329,0.01882581,-0.38774595,1.3472138,915.10063,-579.725)" inkscape:transform-center-y="-3.2587419" inkscape:transform-center-x="-2.8721014" d="m 164.50194,909.05156 -15.18092,-10.79657 -14.9619,11.33871 5.57699,-17.77423 -15.40724,-10.72577 18.62769,-0.1885 5.4397,-17.9676 5.93556,17.65773 18.76916,-0.37883 -14.95931,11.10159 z" inkscape:randomized="0" inkscape:rounded="0" inkscape:flatsided="false" sodipodi:arg2="1.5435626" sodipodi:arg1="0.9244941" sodipodi:r2="9.6799641" sodipodi:r1="25.645163" sodipodi:cy="888.57861" sodipodi:cx="149.05743" sodipodi:sides="5" id="path3958" style="fill:#000000;fill-opacity:1;stroke:none" sodipodi:type="star"/>
    <path style="fill:#ed560f;fill-opacity:1;stroke:#000000;stroke-width:3.14859414;stroke-linecap:butt;stroke-linejoin:miter;stroke-miterlimit:4;stroke-opacity:1;stroke-dasharray:none" d="m 67.786287,777.32743 c -15.705498,-4.47 -38.326317,-24.39701 -54.251776,-8.86467 14.389546,-2.68131 32.143847,11.33312 54.251776,8.86467 z" inkscape:connector-curvature="0" sodipodi:nodetypes="ccc"/>
    <path style="fill:url(#linearGradient4018);fill-opacity:1;stroke:#000000;stroke-width:3.14859414;stroke-linecap:butt;stroke-linejoin:miter;stroke-miterlimit:4;stroke-opacity:1;stroke-dasharray:none" d="m 174.5169,832.28838 c 26.07572,2.27709 43.36317,17.63274 60.98893,0 -22.68376,5.93868 -44.14372,-9.53161 -60.98893,0 z" id="path4006" inkscape:connector-curvature="0" sodipodi:nodetypes="ccc"/>
    <path sodipodi:nodetypes="ccc" inkscape:connector-curvature="0" id="path4008" d="m 131.43766,694.65031 c 7.64584,1.13692 12.7148,8.80381 17.88295,0 -6.65124,2.9651 -12.94365,-4.75903 -17.88295,0 z" style="fill:#ed560f;fill-opacity:1;stroke:#000000;stroke-width:1.57429707;stroke-linecap:butt;stroke-linejoin:miter;stroke-miterlimit:4;stroke-opacity:1;stroke-dasharray:none"/>
    <path sodipodi:nodetypes="cccccccccccccccsccccccccccccccc" inkscape:connector-curvature="0" id="path4059" d="m 255.45002,1014.0528 398.40341,0 57.99546,-153.81401 77.53733,0 18.91158,-52.32201 20.17233,0 16.39001,-44.12696 11.34694,0 -22.73605,51.94352 c -5.48542,15.03777 -9.68639,43.24462 21.47528,43.24462 l 64.9296,0 28.36735,-61.77773 c 4.63239,-11.92068 5.24149,-24.39883 -7.56456,-33.41041 -5.16358,-12.16296 -2.10242,-18.03899 7.56456,-24.58501 l 22.06358,0 c 0,0 14.20483,-30.10881 20.80271,-45.38775 2.69707,-6.24572 7.67479,-18.91154 7.67479,-18.91154 l -305.84703,0 44.12697,-110.31742 c 6.32443,-26.85934 -5.49481,-47.90924 -24.58502,-47.90924 l -520.06775,0 -56.10429,140.57587 c -4.54081,13.17302 -3.80566,42.8662 27.10658,42.8662 l 283.6733,0 -19.54192,37.82311 31.51922,0 -35.93192,81.31966 c -0.41736,3.57437 -2.70996,5.74234 1.26077,12.60776 l -134.90244,0 -54.84349,134.90246 c -8.21491,16.15651 -13.08612,47.27888 20.8027,47.27888 z" style="fill:#000000;stroke:none"/>
    <path style="fill:url(#linearGradient4002);fill-opacity:1;stroke:none" d="m 230.47458,664.06541 41.89351,-102.78526 -22.22904,0 -13.48574,34.5865 c -2.82958,6.09176 -6.69641,9.62818 -12.51148,9.74895 -8.75897,-1.8526 -6.99285,-7.67726 -4.87134,-14.13315 l 16.56256,-38.97072 c 2.37181,-4.10903 5.7212,-6.84946 10.2298,-7.96699 l 33.29796,0 7.78787,-19.79964 -88.33782,0 -50.17479,124.70629 c -3.01563,9.41392 0.63669,13.27121 7.30701,14.61351 z" id="path3122" inkscape:connector-curvature="0" sodipodi:nodetypes="cccccccccccccc"/>
    <path style="fill:url(#linearGradient4000);fill-opacity:1;stroke:none" d="M 304.65392,524.74486 254.3092,648.1045 c -2.71455,7.40542 -1.343,14.09776 5.93642,15.9604 l 37.22556,0 16.49732,-43.01864 2.62383,31.28915 c 0.54512,7.37221 4.88668,10.49305 10.92169,11.72949 l 21.58099,0 24.5328,-59.51596 -22.00737,0 c -5.9779,0.23635 -8.64072,-2.16491 -8.46185,-6.78916 0.5521,-6.21702 6.45847,-9.62647 10.16734,-10.13454 12.60251,-3.23942 20.78239,-10.56397 24.95917,-21.58099 l 11.84003,-29.19008 c 2.96783,-7.02063 0.91966,-10.27354 -5.51004,-12.10931 z m 49.29517,18.63607 c 4.92434,0 6.61055,6.46331 3.77175,14.43106 -2.8388,7.96775 -9.14594,14.43105 -14.07027,14.43105 -4.92434,0 -6.61057,-6.4633 -3.77176,-14.43105 2.8388,-7.96775 9.14594,-14.43106 14.07028,-14.43106 z" id="path3124" inkscape:connector-curvature="0" sodipodi:nodetypes="ccccccccccccccccsssss"/>
    <path style="fill:url(#linearGradient3998);fill-opacity:1;stroke:none" d="M 422.72619,524.75175 371.62714,649.5476 c -2.98357,10.3068 1.75128,12.49367 6.62516,14.52944 l 36.27443,0 23.77845,-58.57697 c 2.39872,-4.37509 5.59943,-7.28192 10.52811,-7.01874 6.06083,2.41868 7.79801,7.26926 4.13253,15.18541 l -20.03949,50.4103 21.74498,0 51.49264,-128.76438 c 1.61569,-5.57111 1.5461,-10.38302 -5.47725,-10.56091 l -77.96051,0 z m 48.01607,18.334 c 4.92434,0 6.61055,6.46331 3.77175,14.43106 -2.8388,7.96775 -9.11314,14.43105 -14.03748,14.43105 -4.92434,0 -6.64336,-6.4633 -3.80455,-14.43105 2.8388,-7.96775 9.14594,-14.43106 14.07028,-14.43106 z" id="path3129" inkscape:connector-curvature="0"/>
    <path style="fill:url(#linearGradient3996);fill-opacity:1;stroke:none" d="m 471.12459,664.0649 56.91717,-139.32004 76.3888,0 c 5.85799,1.77702 7.78715,6.91395 4.99274,16.01224 l -49.42806,123.3078 -22.21766,0 42.1886,-104.8347 c 4.49475,-8.46882 2.57358,-13.16357 -4.24382,-14.97819 -4.569,0.45448 -8.73997,2.89903 -11.98257,9.98546 L 520.30301,664.0649 z" id="path3150" inkscape:connector-curvature="0" sodipodi:nodetypes="ccccccccccc"/>
    <path style="fill:url(#linearGradient3994);fill-opacity:1;stroke:none" d="m 633.38683,524.75175 -56.90428,139.32529 71.89291,0 c 12.5861,-1.50487 19.06024,-8.53185 23.94242,-16.98929 l 39.19345,-97.836 c 4.93655,-15.45876 0.48246,-23.01538 -11.21687,-24.5 l -66.90763,0 z m 38.57028,20.72825 10.7577,0 c 4.67551,0.62998 6.46615,3.83715 4.49331,10.39692 l -17.64525,41.52209 c -1.95112,3.58883 -4.54707,6.54415 -9.57698,7.18273 l -10.75769,0 22.72891,-59.10174 z" id="path3152" inkscape:connector-curvature="0"/>
    <path style="fill:url(#linearGradient3992);fill-opacity:1;stroke:none" d="m 463.9052,682.29443 -8.70397,21.52201 17.12494,0 c 6.36157,0.91081 9.23971,4.51334 5.27899,13.40049 l -38.17112,94.61562 c -1.81608,5.91632 -1.04926,10.54117 6.49721,11.77619 l 49.54124,0 19.49163,-47.91692 c 2.84319,-6.09146 2.98276,-10.83112 -4.46683,-11.7762 l -8.93367,0 c -6.89052,-0.80649 -5.54608,-10.13959 -2.54307,-15.02479 l 15.94357,-38.98326 c 1.76574,-4.18698 4.75302,-6.5417 9.33973,-6.49721 l 19.08556,0 8.93366,-21.11593 z" id="path3157" inkscape:connector-curvature="0" sodipodi:nodetypes="cccccccccccccccc"/>
    <path style="fill:url(#linearGradient3990);fill-opacity:1;stroke:none" d="m 569.56033,682.29422 -49.65902,123.09622 c -4.44117,11.1258 -0.87696,16.24757 6.88911,18.21793 l 33.87148,0 27.84351,-68.7381 c 2.39865,-7.30325 7.68161,-8.25634 11.1948,-8.03817 8.11026,0.84288 7.93038,6.35936 3.73161,16.64957 l -23.25077,60.1267 21.24144,0 56.54815,-141.31415 -22.38962,0 -13.49119,32.6766 c -2.78586,4.26648 -4.94233,5.556 -10.33366,5.16771 -9.60613,-1.34065 -6.40362,-8.12048 -4.59275,-14.06616 l 9.47253,-23.46329 z" id="path3159" inkscape:connector-curvature="0" sodipodi:nodetypes="cccccccccccccccc"/>
    <path style="fill:url(#linearGradient3988);fill-opacity:1;stroke:none" d="m 676.14689,682.29422 -51.94932,125.64126 c -2.67515,7.99308 -0.90698,13.39425 6.21405,15.67289 l 75.56262,0 22.61907,-59.66824 -41.26117,0 c -6.63187,-0.38097 -8.0444,-4.02402 -8.20252,-8.45109 1.49316,-6.16655 6.21656,-8.2219 12.1795,-8.69964 l 45.48671,0 10.19101,-26.80679 -45.48671,0 c -3.17297,-2.65313 -3.95678,-3.56399 -3.72842,-7.74323 1.15994,-5.56779 4.70264,-8.27627 9.94245,-8.9482 l 45.48671,0 8.94822,-20.99696 z" id="path3161" inkscape:connector-curvature="0" sodipodi:nodetypes="cccccccccccccccc"/>
    <path style="fill:url(#linearGradient3986);fill-opacity:1;stroke:none" d="m 723.15051,823.60837 48.54386,0 20.27106,-51.00981 18.13727,0 11.46917,-27.20591 -19.4709,0 13.0695,-32.00693 c 3.83294,-9.86911 9.11838,-10.63592 12.26934,-10.40227 5.80449,1.39341 7.82636,5.36036 4.80104,13.0695 l -5.06777,13.33624 21.60469,0 12.53606,-29.60643 c 2.83372,-10.76189 0.16226,-16.42275 -7.46829,-17.48854 l -74.14943,0 z" id="path3163" inkscape:connector-curvature="0" sodipodi:nodetypes="ccccccccccccccc"/>
    <path sodipodi:nodetypes="cccccccccccccccc" inkscape:connector-curvature="0" id="path3165" d="m 875.84613,682.29443 -8.70398,21.52201 17.12494,0 c 6.36157,0.91081 9.23972,4.51334 5.279,13.40049 l -38.17112,94.61562 c -1.81609,5.91632 -1.04927,10.54117 6.49721,11.77619 l 49.54123,0 19.49164,-47.91692 c 2.84318,-6.09146 2.98275,-10.83112 -4.46685,-11.7762 l -8.93365,0 c -6.89053,-0.80649 -5.54608,-10.13959 -2.54307,-15.02479 l 15.94357,-38.98326 c 1.76574,-4.18698 4.75301,-6.5417 9.33973,-6.49721 l 19.08555,0 8.93367,-21.11593 z" style="fill:url(#linearGradient3984);fill-opacity:1;stroke:none"/>
    <path id="path3167" d="m 296.19144,839.68269 -51.09905,124.79585 c -2.98358,10.30679 1.75128,12.49366 6.62516,14.52945 l 36.27443,0 23.77845,-58.57697 c 2.39872,-4.3751 5.59942,-7.28192 10.52811,-7.01874 6.06083,2.41867 7.79801,7.26925 4.13253,15.1854 l -20.03949,50.41031 21.74498,0 51.49264,-128.76439 c 1.61569,-5.5711 1.5461,-10.38302 -5.47725,-10.56091 l -77.96051,0 z m 48.01607,18.33401 c 4.92433,0 6.61055,6.46331 3.77175,14.43105 -2.8388,7.96775 -9.11314,14.43106 -14.03748,14.43106 -4.92434,0 -6.64336,-6.46331 -3.80455,-14.43106 2.8388,-7.96774 9.14594,-14.43105 14.07028,-14.43105 z" style="fill:url(#linearGradient3982);fill-opacity:1;stroke:none" inkscape:connector-curvature="0"/>
    <path style="fill:url(#linearGradient3980);fill-opacity:1;stroke:none" d="M 400.81747,839.68299 351.5641,962.78915 c -3.18172,9.49554 -1.03418,15.61591 9.82459,16.21914 l 70.9387,0 56.28958,-139.3253 -22.02636,0 -28.14478,71.71134 c -2.53411,4.33501 -4.4362,9.20483 -12.84871,8.5658 -5.05241,-1.17782 -7.48188,-4.51571 -4.58883,-12.23686 l 27.83886,-68.04028 z" id="path3171" inkscape:connector-curvature="0" sodipodi:nodetypes="ccccccccccc"/>
    <path sodipodi:nodetypes="cccccccccccccccc" inkscape:connector-curvature="0" id="path3173" d="m 497.42761,839.68299 -8.70397,20.91835 17.12495,0 c 6.36155,0.89628 9.23971,4.44138 5.27898,13.18681 l -38.17111,93.10696 c -1.81609,5.82198 -1.04928,10.89785 6.49721,12.11318 l 49.54122,0 19.49164,-47.67763 c 2.8432,-5.99435 2.98276,-10.65843 -4.46684,-11.58843 l -8.93366,0 c -6.89052,-0.79364 -5.54608,-9.97792 -2.54307,-14.78522 l 15.94357,-38.36167 c 1.76574,-4.12022 4.75302,-6.43738 9.33974,-6.3936 l 19.08555,0 8.93366,-20.51875 z" style="fill:url(#linearGradient3978);fill-opacity:1;stroke:none"/>
    <path style="fill:url(#linearGradient3976);fill-opacity:1;stroke:none" d="m 602.06487,839.67677 -49.19678,122.17202 c -4.32966,9.67107 -1.66552,14.83625 5.44445,17.15328 l 76.09103,0 50.93507,-126.46854 c 4.26386,-9.3199 0.42814,-11.60964 -4.59171,-12.85676 l -78.68206,0 z m 46.76975,20.23628 c 0.21642,-0.004 0.43953,-0.0154 0.65596,0 4.66415,0.50811 8.1536,3.77347 5.67403,12.59438 l -17.48126,41.2597 c -2.35314,3.99418 -5.78733,6.47359 -10.5937,5.51005 -6.28703,-1.40934 -6.36562,-6.069 -5.37885,-10.26573 l 18.89156,-43.09639 c 1.80059,-3.6637 4.98594,-5.93576 8.23226,-6.00201 z" id="path3943" inkscape:connector-curvature="0"/>
    <path transform="matrix(1.4048329,0.01882581,-0.38774595,1.3472138,915.1175,-579.79664)" inkscape:transform-center-y="-3.2587303" inkscape:transform-center-x="-2.8720949" d="m 164.50194,909.05156 -15.18092,-10.79657 -14.9619,11.33871 5.57699,-17.77423 -15.40724,-10.72577 18.62769,-0.1885 5.4397,-17.9676 5.93556,17.65773 18.76916,-0.37883 -14.95931,11.10159 z" inkscape:randomized="0" inkscape:rounded="0" inkscape:flatsided="false" sodipodi:arg2="1.5435626" sodipodi:arg1="0.9244941" sodipodi:r2="9.6799641" sodipodi:r1="25.645163" sodipodi:cy="888.57861" sodipodi:cx="149.05743" sodipodi:sides="5" id="path4105" style="fill:#ffffff;fill-opacity:1;stroke:none" sodipodi:type="star"/>
    <path sodipodi:type="star" style="fill:#ffffff;fill-opacity:1;stroke:none" id="path4109" sodipodi:sides="5" sodipodi:cx="149.05743" sodipodi:cy="888.57861" sodipodi:r1="25.645163" sodipodi:r2="9.6799641" sodipodi:arg1="0.9244941" sodipodi:arg2="1.5435626" inkscape:flatsided="false" inkscape:rounded="0" inkscape:randomized="0" d="m 164.50194,909.05156 -15.18092,-10.79657 -14.9619,11.33871 5.57699,-17.77423 -15.40724,-10.72577 18.62769,-0.1885 5.4397,-17.9676 5.93556,17.65773 18.76916,-0.37883 -14.95931,11.10159 z" inkscape:transform-center-x="-2.8720051" inkscape:transform-center-y="-3.2587303" transform="matrix(1.4048329,0.01882581,-0.38774595,1.3472138,1001.1176,-579.79664)"/>
    <path transform="matrix(1.4048329,0.01882581,-0.38774595,1.3472138,1087.7193,-579.79664)" inkscape:transform-center-y="-3.2587303" inkscape:transform-center-x="-2.8720709" d="m 164.50194,909.05156 -15.18092,-10.79657 -14.9619,11.33871 5.57699,-17.77423 -15.40724,-10.72577 18.62769,-0.1885 5.4397,-17.9676 5.93556,17.65773 18.76916,-0.37883 -14.95931,11.10159 z" inkscape:randomized="0" inkscape:rounded="0" inkscape:flatsided="false" sodipodi:arg2="1.5435626" sodipodi:arg1="0.9244941" sodipodi:r2="9.6799641" sodipodi:r1="25.645163" sodipodi:cy="888.57861" sodipodi:cx="149.05743" sodipodi:sides="5" id="path4113" style="fill:#ffffff;fill-opacity:1;stroke:none" sodipodi:type="star"/>
    <path sodipodi:type="star" style="fill:#ffffff;fill-opacity:1;stroke:none" id="path4127" sodipodi:sides="5" sodipodi:cx="149.05743" sodipodi:cy="888.57861" sodipodi:r1="25.645163" sodipodi:r2="9.6799641" sodipodi:arg1="0.9244941" sodipodi:arg2="1.5435626" inkscape:flatsided="false" inkscape:rounded="0" inkscape:randomized="0" d="m 164.50194,909.05156 -15.18092,-10.79657 -14.9619,11.33871 5.57699,-17.77423 -15.40724,-10.72577 18.62769,-0.1885 5.4397,-17.9676 5.93556,17.65773 18.76916,-0.37883 -14.95931,11.10159 z" inkscape:transform-center-x="-2.8721028" inkscape:transform-center-y="-3.2587354" transform="matrix(1.4048329,0.01882581,-0.38774595,1.3472138,167.79576,-301.92832)"/>
    <path transform="matrix(1.4048329,0.01882581,-0.38774595,1.3472138,250.78307,-301.92832)" inkscape:transform-center-y="-3.2587354" inkscape:transform-center-x="-2.8721024" d="m 164.50194,909.05156 -15.18092,-10.79657 -14.9619,11.33871 5.57699,-17.77423 -15.40724,-10.72577 18.62769,-0.1885 5.4397,-17.9676 5.93556,17.65773 18.76916,-0.37883 -14.95931,11.10159 z" inkscape:randomized="0" inkscape:rounded="0" inkscape:flatsided="false" sodipodi:arg2="1.5435626" sodipodi:arg1="0.9244941" sodipodi:r2="9.6799641" sodipodi:r1="25.645163" sodipodi:cy="888.57861" sodipodi:cx="149.05743" sodipodi:sides="5" id="path4129" style="fill:#ffffff;fill-opacity:1;stroke:none" sodipodi:type="star"/>
    <path sodipodi:type="star" style="fill:#ffffff;fill-opacity:1;stroke:none" id="path4131" sodipodi:sides="5" sodipodi:cx="149.05743" sodipodi:cy="888.57861" sodipodi:r1="25.645163" sodipodi:r2="9.6799641" sodipodi:arg1="0.9244941" sodipodi:arg2="1.5435626" inkscape:flatsided="false" inkscape:rounded="0" inkscape:randomized="0" d="m 164.50194,909.05156 -15.18092,-10.79657 -14.9619,11.33871 5.57699,-17.77423 -15.40724,-10.72577 18.62769,-0.1885 5.4397,-17.9676 5.93556,17.65773 18.76916,-0.37883 -14.95931,11.10159 z" inkscape:transform-center-x="-2.872102" inkscape:transform-center-y="-3.2587354" transform="matrix(1.4048329,0.01882581,-0.38774595,1.3472138,336.17959,-301.92832)"/>
  </g>
</svg>